<svg xmlns="http://www.w3.org/2000/svg" xmlns:xlink="http://www.w3.org/1999/xlink" width="1920" height="1080" viewBox="0 0 1920 1080">
  <defs>
    <clipPath id="clip-Web_1920_1">
      <rect width="1920" height="1080"/>
    </clipPath>
  </defs>
  <g id="Web_1920_1" data-name="Web 1920 – 1" clip-path="url(#clip-Web_1920_1)">
    <rect width="1920" height="1080" fill="#fff"/>
    <line id="線_1" data-name="線 1" y2="709.5" transform="translate(934.5 187)" fill="none" stroke="#5c5c5c" stroke-width="4"/>
    <line id="線_2" data-name="線 2" x2="48" transform="translate(1176 519)" fill="none" stroke="#5c5c5c" stroke-width="4"/>
    <line id="線_5" data-name="線 5" y2="77" transform="translate(1464 816)" fill="none" stroke="#5c5c5c" stroke-width="4"/>
    <line id="線_6" data-name="線 6" y2="77" transform="translate(432 816)" fill="none" stroke="#5c5c5c" stroke-width="4"/>
    <line id="線_3" data-name="線 3" x2="289" transform="translate(935 689)" fill="none" stroke="#5c5c5c" stroke-width="4"/>
    <line id="線_4" data-name="線 4" x2="1035" transform="translate(431 818)" fill="none" stroke="#5c5c5c" stroke-width="4"/>
    <g id="グループ_1" data-name="グループ 1" transform="translate(692 65)">
      <rect id="長方形_1" data-name="長方形 1" width="484" height="122" rx="8" fill="#5c5c5c"/>
      <path id="パス_8" data-name="パス 8" d="M-67.1-12.408c-.924-.88-4.312-3.916-6.424-5.632a42.707,42.707,0,0,0,5.192-9.416l-2.948-1.892-.924.22h-1.98v-8.1h-5.192v8.1h-6.248v4.752h10.6A32.866,32.866,0,0,1-87.3-12.1a20.972,20.972,0,0,1,2.464,4.972,36.411,36.411,0,0,0,5.456-4.224V3.828h5.192V-12.76c1.5,1.628,2.992,3.388,3.916,4.62Zm12.672,9.856v-16.1h8.316v-5.06h-8.316V-36.872H-59.8v13.156h-8.36v5.06h8.36v16.1H-69.96v5.1h24.9v-5.1Zm41.4-26.4H-30.8v-2.86h17.776ZM-7.436-35.9H-36.08v11H-7.436ZM-32.868-9.284h21.56v1.936h-21.56Zm0-5.192h21.56v1.848h-21.56Zm0-5.236h21.56v1.892h-21.56ZM-5.9-3.828V-23.276H-38.06V-3.828h6.908A53.714,53.714,0,0,1-42.5.088a46.024,46.024,0,0,1,3.96,3.74A58.626,58.626,0,0,0-24.9-1.452l-3.388-2.376H-16.28l-3.7,2.64a117.114,117.114,0,0,1,14.124,5.1l4.62-3.7C-4.268-1.012-8.888-2.6-13.024-3.828ZM31.24-34.848A46.505,46.505,0,0,0,39.468-24.6a19.821,19.821,0,0,1,3.608-3.828,30.769,30.769,0,0,1-7.568-8.228ZM41.492-16.016a45.421,45.421,0,0,0-6.072-9.592l-3.96,1.936c.616.836,1.276,1.76,1.892,2.728l-5.06.22c1.1-2.376,2.244-5.1,3.3-7.612l-5.236-1.232a68.358,68.358,0,0,1-2.816,9.02c-1.716.088-3.3.132-4.664.176l.88,4.708c4.4-.308,10.3-.748,16.016-1.232a23.422,23.422,0,0,1,1.452,3.124Zm-17.2,2.552a23.127,23.127,0,0,1,7.348,5.808l3.432-3.212a24.226,24.226,0,0,0-7.48-5.368ZM23.32-36.608a20.78,20.78,0,0,1-6.512,9.372,36.807,36.807,0,0,1,4.048,3.168,30.1,30.1,0,0,0,7.392-11.308ZM2.948-11.616C2.6-7.92,1.98-3.96.748-1.408A27.4,27.4,0,0,1,4.532.44a40.308,40.308,0,0,0,2.64-11.352Zm11.616-3.212a25.869,25.869,0,0,1,.792,2.816l3.916-1.8a38.991,38.991,0,0,0-4.136-9.328l-3.7,1.54c.484.88.968,1.8,1.452,2.816l-3.872.264c2.772-3.476,5.72-7.832,8.14-11.528l-4.224-1.98a70.579,70.579,0,0,1-3.96,7.084c-.4-.572-.88-1.188-1.364-1.76C9.152-29.216,11-32.6,12.54-35.6L8.052-37.268A57.688,57.688,0,0,1,4.84-29.656c-.352-.308-.66-.616-1.012-.924L1.276-27.1a40.274,40.274,0,0,1,5.016,6.2c-.66.968-1.32,1.892-1.98,2.728L1.188-18l.7,4.532,5.94-.616V3.784h4.532V-14.564ZM12.5-10.516a52.416,52.416,0,0,1,2.376,8.272l3.256-1.1A14.156,14.156,0,0,1,16.412.22l4.092,1.8A27.868,27.868,0,0,0,23.716-8.4l-4.18-.7a32.968,32.968,0,0,1-.968,4.4,64.506,64.506,0,0,0-2.332-6.952ZM33.968-8.008a36.56,36.56,0,0,1,2.86,4.972,11.8,11.8,0,0,1-4.048-1.8c-.088,3.74-.264,4.224-1.056,4.224H29.7c-.748,0-.88-.132-.88-1.32v-8.14H24.068v8.184c0,4.268.792,5.676,4.8,5.676H32.34c2.9,0,4.18-1.32,4.664-6.424A21.8,21.8,0,0,1,38.72,2.244L43.076.088A30.867,30.867,0,0,0,37.928-9.988ZM57.9-24.068a39.987,39.987,0,0,0,8.052-8.14,42.822,42.822,0,0,0,8.448,8.14Zm-2.156,4.8H76.3v-3.476a53.169,53.169,0,0,0,7.392,4.268,27.12,27.12,0,0,1,3.388-4.8A40.248,40.248,0,0,1,68.464-37.224H63.008c-3.3,5.192-10.3,11.44-17.776,14.74a20.44,20.44,0,0,1,3.08,4.4,50.8,50.8,0,0,0,7.436-4.4ZM47.96-10.78H58.168a84.5,84.5,0,0,1-3.344,7.964L48.18-2.6l.7,5.1c7.48-.352,18.348-.792,28.688-1.364a23.326,23.326,0,0,1,1.76,2.728L84.216.924A59.176,59.176,0,0,0,74.14-10.384l-4.62,2.42a52.442,52.442,0,0,1,4.312,4.488c-4.488.176-9.02.352-13.244.484,1.32-2.464,2.772-5.192,4.048-7.788H84.348v-4.84H47.96Z" transform="translate(243 78)" fill="#fff"/>
    </g>
    <g id="グループ_2" data-name="グループ 2" transform="translate(692 458)">
      <rect id="長方形_1-2" data-name="長方形 1" width="484" height="122" rx="8" fill="#5c5c5c"/>
      <path id="パス_7" data-name="パス 7" d="M-28.2-9.9c-1.408.484-2.86.924-4.312,1.364v-8.8h3.96v-4.8h-3.96v-7.744h4.708V-34.76h-14.52v4.884h4.84v7.744h-4.444v4.8h4.444V-7c-2.024.572-3.828,1.056-5.368,1.452L-41.668-.22c4.224-1.364,9.5-3.036,14.344-4.752Zm6.776-13.288H-16.9V-19.4h-4.532Zm0-7.788H-16.9v3.7h-4.532Zm13.288,3.7H-12.5v-3.7H-8.14Zm0,7.876H-12.5v-3.784H-8.14ZM-12.012-2.288v-4.18h9.328v-4.708h-9.328V-14.96h8.844V-35.42H-26.136v20.46h8.8v3.784h-9.108v4.708h9.108v4.18H-29.48V2.464H-1.188V-2.288Zm44.44-4.048h-7.92V-8.4h7.92ZM24.508-14.3h7.92v1.892h-7.92ZM12.276-23.056v-2.112h6.908v2.112Zm19.36-2.112v2.112H24.508v-2.112Zm10.692,12.76H37.752V-17.82H24.508v-1.936H37v-8.712h-12.5v-1.8H41.316v-4.136H24.508v-2.86H19.184v2.86H2.772v4.136H19.184v1.8H7.26v8.712H19.184v1.936H6.16v3.52H19.184v1.892H1.76v4H19.184v2.068H5.808v3.784H19.184v1.364c0,.792-.264,1.056-1.1,1.1-.7,0-3.3,0-5.412-.088A16.131,16.131,0,0,1,14.388,3.96c3.74,0,6.116-.088,7.788-.748,1.716-.748,2.332-1.8,2.332-4.4V-2.552h7.92v1.8h5.324V-8.4h4.576Z" transform="translate(243 78)" fill="#fff"/>
    </g>
    <g id="グループ_5" data-name="グループ 5" transform="translate(692.169 893)">
      <rect id="長方形_1-3" data-name="長方形 1" width="484" height="122" rx="8" transform="translate(-0.169)" fill="#5c5c5c"/>
      <path id="パス_6" data-name="パス 6" d="M-167.772-31.24v6.116c1.232-.088,3.608-.176,5.456-.176h19.756V-7.084h-20.284c-1.98,0-3.96-.132-5.5-.264v6.292c1.452-.132,3.96-.264,5.676-.264H-142.6c0,.836,0,1.584-.044,2.288h6.38c-.088-1.32-.176-3.652-.176-5.192V-27.016c0-1.276.088-3.036.132-4.048-.748.044-2.6.088-3.872.088H-162.36C-163.856-30.976-166.144-31.064-167.772-31.24Zm49.632-3.212-2.068,5.192c6.2.792,18.7,3.608,23.8,5.5l2.244-5.5C-99.7-31.2-112.376-33.748-118.14-34.452Zm-2.024,11.836-2.024,5.324c6.556,1.056,17.82,3.608,22.88,5.544l2.156-5.5C-102.7-19.184-113.872-21.56-120.164-22.616Zm-2.244,12.584-2.2,5.544c7.04,1.056,20.944,4.092,26.884,6.556l2.42-5.5C-101.332-5.676-114.884-8.844-122.408-10.032Zm69.124-10.956-4.268-2.068a9.96,9.96,0,0,1-3.256.484H-72.072c-1.188,0-3.212-.132-4.356-.264v5.808c1.276-.088,2.992-.22,4.4-.22h11.88c-.132,2.464-1.1,8.712-1.716,12.452H-76.12a42.269,42.269,0,0,1-4.356-.22V.7C-78.8.616-77.7.572-76.12.572h23.144c1.188,0,3.344.088,4.224.132V-4.972c-1.144.132-3.168.176-4.312.176H-55.88c.66-4.18,1.8-11.748,2.156-14.344A12.265,12.265,0,0,1-53.284-20.988ZM-35.2-29.876v6.38c1.5-.088,3.52-.176,5.192-.176h18.172c1.54,0,3.608.132,4.884.176v-6.38c-1.232.132-3.124.264-4.884.264H-30.052C-31.548-29.612-33.616-29.7-35.2-29.876ZM-38.9-8.36v6.732c1.628-.132,3.784-.264,5.5-.264H-8.14a47.8,47.8,0,0,1,4.84.264V-8.36A44.6,44.6,0,0,1-8.14-8.1H-33.4C-35.112-8.1-37.18-8.228-38.9-8.36Zm49.06-25.388v5.676c1.364-.088,3.212-.176,4.752-.176H32.56c1.54,0,3.256.088,4.752.176v-5.676a34.471,34.471,0,0,1-4.752.308H14.872A33.84,33.84,0,0,1,10.164-33.748ZM5.06-22.484v5.764c1.232-.088,2.9-.176,4.224-.176h12.1a18.908,18.908,0,0,1-2.728,9.724A18.278,18.278,0,0,1,10.692-.88L15.84,2.86a21.112,21.112,0,0,0,8.844-8.448A27.914,27.914,0,0,0,27.5-16.9H38.1c1.232,0,2.9.044,4,.132v-5.72a33.275,33.275,0,0,1-4,.264H9.284C7.92-22.22,6.38-22.352,5.06-22.484ZM47.388-12.54l2.6,5.192A91.792,91.792,0,0,0,62.612-12.5V-.88c0,1.54-.132,3.872-.22,4.752H68.9A24.5,24.5,0,0,1,68.6-.88V-15.972a57.674,57.674,0,0,0,9.856-8.008L74.1-28.248A45.842,45.842,0,0,1,63.14-18.832,58.1,58.1,0,0,1,47.388-12.54Zm71.72,6.2h-7.92V-8.4h7.92Zm-7.92-7.964h7.92v1.892h-7.92ZM98.956-23.056v-2.112h6.908v2.112Zm19.36-2.112v2.112h-7.128v-2.112Zm10.692,12.76h-4.576V-17.82H111.188v-1.936h12.5v-8.712h-12.5v-1.8H128v-4.136H111.188v-2.86h-5.324v2.86H89.452v4.136h16.412v1.8H93.94v8.712h11.924v1.936H92.84v3.52h13.024v1.892H88.44v4h17.424v2.068H92.488v3.784h13.376v1.364c0,.792-.264,1.056-1.1,1.1-.7,0-3.3,0-5.412-.088a16.131,16.131,0,0,1,1.716,4.136c3.74,0,6.116-.088,7.788-.748,1.716-.748,2.332-1.8,2.332-4.4V-2.552h7.92v1.8h5.324V-8.4h4.576Zm29.084-13.42c-.484,1.188-1.012,2.464-1.54,3.52h-8.228l.748-.132a23.637,23.637,0,0,0-1.5-3.388ZM172.3-6.2v-4.312H155.188v-1.936h13.2v-3.784h-13.2v-1.98h15.268v-4.092h-8.624c.66-1.056,1.364-2.244,2.068-3.52h8.272V-30.1h-5.72c1.012-1.54,2.2-3.52,3.432-5.544l-5.5-1.32a35.444,35.444,0,0,1-2.772,6.38l1.584.484H159.28v-7.172h-4.928V-30.1H151.1v-7.172h-4.884V-30.1h-4l2.156-.792a33.3,33.3,0,0,0-3.344-6.2l-4.488,1.54A39.44,39.44,0,0,1,139.26-30.1h-5.9v4.268h9.2l-.528.088a19.772,19.772,0,0,1,1.5,3.432h-8.36v4.092H150.04v1.98H137.368v3.784H150.04v1.936H133.232V-6.2H145.86a46.227,46.227,0,0,1-13.9,5.148A24.406,24.406,0,0,1,135.3,3.3a41.738,41.738,0,0,0,14.74-7.128V3.828h5.148v-7.92a37.558,37.558,0,0,0,14.784,7.436,24.613,24.613,0,0,1,3.52-4.752,39.309,39.309,0,0,1-13.948-4.8Z" transform="translate(241.831 78)" fill="#fff"/>
    </g>
    <g id="グループ_7" data-name="グループ 7" transform="translate(1224 893)">
      <rect id="長方形_1-4" data-name="長方形 1" width="479" height="122" rx="8" transform="translate(0)" fill="#5c5c5c"/>
      <path id="パス_5" data-name="パス 5" d="M-114.686.616c7.524,0,11.968-4.532,11.968-9.856,0-4.708-2.6-7.216-6.556-8.844l-4.268-1.8c-2.772-1.1-5.06-1.936-5.06-4.268,0-2.156,1.8-3.432,4.664-3.432A10.387,10.387,0,0,1-107.03-24.9l3.3-4.092a14.449,14.449,0,0,0-10.208-4.18c-6.6,0-11.264,4.092-11.264,9.416,0,4.752,3.3,7.392,6.6,8.756l4.356,1.848c2.9,1.232,4.884,1.98,4.884,4.4,0,2.288-1.8,3.74-5.192,3.74a12.81,12.81,0,0,1-8.272-3.608l-3.74,4.488A17.351,17.351,0,0,0-114.686.616Zm31.02,0a13.177,13.177,0,0,0,10.384-4.8l-3.432-4.048a8.981,8.981,0,0,1-6.732,3.212c-5.148,0-8.492-4.268-8.492-11.352,0-7,3.7-11.22,8.624-11.22a8.578,8.578,0,0,1,6.028,2.728L-73.9-29a13.282,13.282,0,0,0-9.548-4.18c-8.228,0-15.136,6.292-15.136,17.028C-98.582-5.28-91.894.616-83.666.616Zm22.176,0c7,0,10.076-5.016,10.076-11.132V-32.6h-6.512v21.56c0,4.488-1.5,6.028-4.356,6.028-1.848,0-3.564-1.012-4.84-3.388l-4.444,3.3C-69.41-1.32-66.242.616-61.49.616Zm55.44-20.68v-5.412H-23.342c.44-4.092.484-8.14.528-11.748h-5.72c-.044,3.608,0,7.612-.44,11.748H-44.99v5.412h15.136C-31.57-12.5-35.75-5.192-45.826-.7A15.5,15.5,0,0,1-41.91,3.74a30.286,30.286,0,0,0,16.456-18.7C-22.022-6.468-16.918-.044-8.954,3.7A21.057,21.057,0,0,1-5.082-1.232C-13.31-4.576-18.634-11.484-21.538-20.064Zm16.368-4a39.987,39.987,0,0,0,8.052-8.14,42.822,42.822,0,0,0,8.448,8.14Zm-2.156,4.8H28.71v-3.476A53.169,53.169,0,0,0,36.1-18.48a27.121,27.121,0,0,1,3.388-4.8A40.249,40.249,0,0,1,20.878-37.224H15.422c-3.3,5.192-10.3,11.44-17.776,14.74a20.44,20.44,0,0,1,3.08,4.4,50.8,50.8,0,0,0,7.436-4.4ZM.374-10.78H10.582A84.5,84.5,0,0,1,7.238-2.816L.594-2.6l.7,5.1c7.48-.352,18.348-.792,28.688-1.364a23.326,23.326,0,0,1,1.76,2.728L36.63.924A59.176,59.176,0,0,0,26.554-10.384l-4.62,2.42a52.443,52.443,0,0,1,4.312,4.488c-4.488.176-9.02.352-13.244.484,1.32-2.464,2.772-5.192,4.048-7.788H36.762v-4.84H.374ZM72.842-6.336h-7.92V-8.4h7.92ZM64.922-14.3h7.92v1.892h-7.92ZM52.69-23.056v-2.112H59.6v2.112Zm19.36-2.112v2.112H64.922v-2.112Zm10.692,12.76H78.166V-17.82H64.922v-1.936h12.5v-8.712h-12.5v-1.8H81.73v-4.136H64.922v-2.86H59.6v2.86H43.186v4.136H59.6v1.8H47.674v8.712H59.6v1.936H46.574v3.52H59.6v1.892H42.174v4H59.6v2.068H46.222v3.784H59.6v1.364c0,.792-.264,1.056-1.1,1.1-.7,0-3.3,0-5.412-.088A16.131,16.131,0,0,1,54.8,3.96c3.74,0,6.116-.088,7.788-.748,1.716-.748,2.332-1.8,2.332-4.4V-2.552h7.92v1.8h5.324V-8.4h4.576Zm29.084-13.42c-.484,1.188-1.012,2.464-1.54,3.52h-8.228l.748-.132a23.636,23.636,0,0,0-1.5-3.388ZM126.038-6.2v-4.312H108.922v-1.936h13.2v-3.784h-13.2v-1.98H124.19v-4.092h-8.624c.66-1.056,1.364-2.244,2.068-3.52h8.272V-30.1h-5.72c1.012-1.54,2.2-3.52,3.432-5.544l-5.5-1.32a35.444,35.444,0,0,1-2.772,6.38l1.584.484h-3.916v-7.172h-4.928V-30.1H104.83v-7.172H99.946V-30.1h-4l2.156-.792a33.294,33.294,0,0,0-3.344-6.2l-4.488,1.54A39.441,39.441,0,0,1,92.994-30.1H87.1v4.268h9.2l-.528.088a19.772,19.772,0,0,1,1.5,3.432H88.9v4.092h14.872v1.98H91.1v3.784h12.672v1.936H86.966V-6.2H99.594a46.227,46.227,0,0,1-13.9,5.148A24.406,24.406,0,0,1,89.034,3.3a41.738,41.738,0,0,0,14.74-7.128V3.828h5.148v-7.92a37.558,37.558,0,0,0,14.784,7.436,24.613,24.613,0,0,1,3.52-4.752,39.309,39.309,0,0,1-13.948-4.8Z" transform="translate(240 78)" fill="#fff"/>
    </g>
    <g id="グループ_6" data-name="グループ 6" transform="translate(217.441 893)">
      <rect id="長方形_1-5" data-name="長方形 1" width="427" height="122" rx="8" transform="translate(-0.441)" fill="#5c5c5c"/>
      <path id="パス_4" data-name="パス 4" d="M-129.536,0h7.964l3.564-16.1c.528-2.552.968-5.06,1.408-7.568h.176c.4,2.508.88,5.016,1.408,7.568L-111.364,0h8.1l6.028-32.6h-6.16L-106-16.676c-.484,3.388-.968,6.864-1.452,10.384h-.22c-.7-3.52-1.364-7.04-2.068-10.384l-3.74-15.928h-5.588l-3.784,15.928c-.7,3.388-1.408,6.864-2.068,10.384h-.176c-.484-3.52-1.012-6.952-1.5-10.384l-2.6-15.928h-6.6ZM-79.2.616a13.177,13.177,0,0,0,10.384-4.8l-3.432-4.048A8.981,8.981,0,0,1-78.98-5.016c-5.148,0-8.492-4.268-8.492-11.352,0-7,3.7-11.22,8.624-11.22A8.578,8.578,0,0,1-72.82-24.86L-69.432-29a13.282,13.282,0,0,0-9.548-4.18c-8.228,0-15.136,6.292-15.136,17.028C-94.116-5.28-87.428.616-79.2.616Zm22.7-17.6c.968-3.388,1.936-7.084,2.772-10.648h.22c.924,3.52,1.8,7.26,2.816,10.648l.968,3.564h-7.744ZM-67.76,0h6.6l2.288-8.36h10.56L-46.024,0h6.82L-49.676-32.6h-7.656ZM2.156-20.064v-5.412H-15.136c.44-4.092.484-8.14.528-11.748h-5.72c-.044,3.608,0,7.612-.44,11.748H-36.784v5.412h15.136C-23.364-12.5-27.544-5.192-37.62-.7A15.5,15.5,0,0,1-33.7,3.74a30.286,30.286,0,0,0,16.456-18.7C-13.816-6.468-8.712-.044-.748,3.7A21.057,21.057,0,0,1,3.124-1.232C-5.1-4.576-10.428-11.484-13.332-20.064Zm16.368-4a39.987,39.987,0,0,0,8.052-8.14,42.822,42.822,0,0,0,8.448,8.14Zm-2.156,4.8H36.916v-3.476a53.169,53.169,0,0,0,7.392,4.268,27.121,27.121,0,0,1,3.388-4.8A40.249,40.249,0,0,1,29.084-37.224H23.628c-3.3,5.192-10.3,11.44-17.776,14.74a20.44,20.44,0,0,1,3.08,4.4,50.8,50.8,0,0,0,7.436-4.4ZM8.58-10.78H18.788a84.5,84.5,0,0,1-3.344,7.964L8.8-2.6l.7,5.1c7.48-.352,18.348-.792,28.688-1.364a23.326,23.326,0,0,1,1.76,2.728L44.836.924A59.176,59.176,0,0,0,34.76-10.384l-4.62,2.42a52.443,52.443,0,0,1,4.312,4.488c-4.488.176-9.02.352-13.244.484,1.32-2.464,2.772-5.192,4.048-7.788H44.968v-4.84H8.58ZM81.048-6.336h-7.92V-8.4h7.92ZM73.128-14.3h7.92v1.892h-7.92ZM60.9-23.056v-2.112H67.8v2.112Zm19.36-2.112v2.112H73.128v-2.112Zm10.692,12.76H86.372V-17.82H73.128v-1.936h12.5v-8.712h-12.5v-1.8H89.936v-4.136H73.128v-2.86H67.8v2.86H51.392v4.136H67.8v1.8H55.88v8.712H67.8v1.936H54.78v3.52H67.8v1.892H50.38v4H67.8v2.068H54.428v3.784H67.8v1.364c0,.792-.264,1.056-1.1,1.1-.7,0-3.3,0-5.412-.088A16.131,16.131,0,0,1,63.008,3.96c3.74,0,6.116-.088,7.788-.748,1.716-.748,2.332-1.8,2.332-4.4V-2.552h7.92v1.8h5.324V-8.4h4.576Zm29.084-13.42c-.484,1.188-1.012,2.464-1.54,3.52h-8.228l.748-.132a23.636,23.636,0,0,0-1.5-3.388ZM134.244-6.2v-4.312H117.128v-1.936h13.2v-3.784h-13.2v-1.98H132.4v-4.092h-8.624c.66-1.056,1.364-2.244,2.068-3.52h8.272V-30.1h-5.72c1.012-1.54,2.2-3.52,3.432-5.544l-5.5-1.32a35.444,35.444,0,0,1-2.772,6.38l1.584.484H121.22v-7.172h-4.928V-30.1h-3.256v-7.172h-4.884V-30.1h-4l2.156-.792a33.294,33.294,0,0,0-3.344-6.2l-4.488,1.54A39.441,39.441,0,0,1,101.2-30.1H95.3v4.268h9.2l-.528.088a19.772,19.772,0,0,1,1.5,3.432h-8.36v4.092H111.98v1.98H99.308v3.784H111.98v1.936H95.172V-6.2H107.8A46.227,46.227,0,0,1,93.9-1.056,24.406,24.406,0,0,1,97.24,3.3a41.738,41.738,0,0,0,14.74-7.128V3.828h5.148v-7.92a37.558,37.558,0,0,0,14.784,7.436,24.613,24.613,0,0,1,3.52-4.752,39.309,39.309,0,0,1-13.948-4.8Z" transform="translate(213.559 80)" fill="#fff"/>
    </g>
    <g id="グループ_3" data-name="グループ 3" transform="translate(692 288)">
      <rect id="長方形_1-6" data-name="長方形 1" width="484" height="122" rx="8" fill="#5c5c5c"/>
      <path id="パス_3" data-name="パス 3" d="M-46.288-29.876a39.743,39.743,0,0,0-6.336-7.084l-3.916,2.42a37.436,37.436,0,0,1,6.028,7.392Zm-29.172-7.04a45.991,45.991,0,0,1-12.012,17.16,33.6,33.6,0,0,1,2.9,5.324,41.46,41.46,0,0,0,4.576-4.928V3.74h5.456V-27.192a69.9,69.9,0,0,0,4.092-8.1Zm29.832,15.8-.748-4.928-12.54,1.628c-.308-3.74-.484-7.876-.572-12.188h-5.324c.132,4.62.4,8.932.7,12.892L-73-22.528l.748,5.06,8.668-1.188C-62-5.236-58.52,3.036-51.084,3.74c2.464.132,4.84-1.892,5.94-10.384a18,18,0,0,1-4.268-2.992c-.352,4.884-.88,7.084-1.892,7-3.52-.44-5.852-6.952-7.084-16.72ZM-7.04-15.972a57.805,57.805,0,0,1-6.908,5.28,27.616,27.616,0,0,1-2.64-5.9H-2.6v-4.444h-16.9V-23.5H-5.72v-4.18H-19.492V-29.92H-4v-4.444H-19.492v-2.9h-5.236v2.9H-39.864v4.444h15.136v2.244H-37.8v4.18h13.068v2.464H-41.492v4.444h13.376a49.987,49.987,0,0,1-15,6.732,27.091,27.091,0,0,1,3.344,4.224,50.432,50.432,0,0,0,7.3-2.9v6.292c-2.2.44-4.268.836-5.984,1.144l1.54,4.84C-31.46,2.552-24.068,1.012-17.16-.616l-.484-4.752c-3.168.7-6.468,1.408-9.592,2.068v-8.184a39.933,39.933,0,0,0,5.764-4.444C-18.568-6.16-13.728.528-4.444,3.7A21.107,21.107,0,0,1-1.056-.968,21.389,21.389,0,0,1-11.44-7.26a83.544,83.544,0,0,0,8.756-5.456ZM15.8-9.9c-1.408.484-2.86.924-4.312,1.364v-8.8h3.96v-4.8h-3.96v-7.744h4.708V-34.76H1.672v4.884h4.84v7.744H2.068v4.8H6.512V-7C4.488-6.424,2.684-5.94,1.144-5.544L2.332-.22c4.224-1.364,9.5-3.036,14.344-4.752Zm6.776-13.288H27.1V-19.4H22.572Zm0-7.788H27.1v3.7H22.572Zm13.288,3.7H31.5v-3.7H35.86Zm0,7.876H31.5v-3.784H35.86ZM31.988-2.288v-4.18h9.328v-4.708H31.988V-14.96h8.844V-35.42H17.864v20.46h8.8v3.784H17.556v4.708h9.108v4.18H14.52V2.464H42.812V-2.288Zm44.44-4.048h-7.92V-8.4h7.92ZM68.508-14.3h7.92v1.892h-7.92ZM56.276-23.056v-2.112h6.908v2.112Zm19.36-2.112v2.112H68.508v-2.112Zm10.692,12.76H81.752V-17.82H68.508v-1.936H81v-8.712h-12.5v-1.8H85.316v-4.136H68.508v-2.86H63.184v2.86H46.772v4.136H63.184v1.8H51.26v8.712H63.184v1.936H50.16v3.52H63.184v1.892H45.76v4H63.184v2.068H49.808v3.784H63.184v1.364c0,.792-.264,1.056-1.1,1.1-.7,0-3.3,0-5.412-.088A16.131,16.131,0,0,1,58.388,3.96c3.74,0,6.116-.088,7.788-.748,1.716-.748,2.332-1.8,2.332-4.4V-2.552h7.92v1.8h5.324V-8.4h4.576Z" transform="translate(243 78)" fill="#fff"/>
    </g>
    <g id="グループ_4" data-name="グループ 4" transform="translate(111 298)">
      <rect id="長方形_1-7" data-name="長方形 1" width="385" height="122" rx="8" transform="translate(1113 160)" fill="#5c5c5c"/>
      <path id="パス_2" data-name="パス 2" d="M-7.172-21.692h-7.876v-2.684h7.876Zm0,6.38h-7.876V-18.04h7.876Zm0,6.38h-7.876v-2.684h7.876Zm-12.144-19.4v23.32H-2.728v-23.32h-6.6q.4-1.32.792-2.772h6.512v-4.4H-20.2v4.4h6.468c-.088.924-.176,1.848-.308,2.772Zm-2.464-7.172h-19.8V-31.2h19.8ZM-31.328-3.564h2.64v1.716h-2.64Zm-.132-15.664h4.048c-.264,1.012-.66,2.244-1.056,3.344h-2.42c.4-.968.748-1.98,1.056-2.948Zm-4.708,0h2.6a23.656,23.656,0,0,1-2.684,5.852c.088-1.5.088-2.948.088-4.224Zm9.724-6.16v2.6h-9.724v-2.6Zm-2.244,14.432h-2.64v-1.716h2.64Zm0,4.532h-2.64V-8.1h2.64Zm7.832,4.576h-4.532V-3.564H-21.6v-2.86h-3.784V-8.1H-21.6v-2.86h-3.784v-1.716h3.96v-3.212h-3.344l1.32-2.6-2.772-.748h4.4v-9.724h-18.7V-17.6c0,5.412-.176,12.936-2.552,18.26a15.891,15.891,0,0,1,3.7,2.684c1.76-3.7,2.6-8.712,2.948-13.376.528.484,1.056,1.012,1.364,1.364l.088-.088V3.3h3.652V1.54h9.856c.88.792,1.848,1.716,2.464,2.376A28.95,28.95,0,0,0-11.4-2.156L-15.532-4.62A22.584,22.584,0,0,1-20.856.044Zm10.6-.264A46.486,46.486,0,0,1-4.84,3.872l3.916-2.64A45.492,45.492,0,0,0-6.556-4.444Zm25.784-29.48v2.376H8.8v-2.376ZM8.8-23.188V-25.7h6.732v2.508Zm11.616,3.96V-35.6H3.608V3.828H8.8V-19.228Zm5.06,7.348v5.192h-7.26V-11.88Zm4.884,9.5V-16.192H13.332V.088h4.884V-2.376ZM28.424-23.144V-25.7h6.952v2.552Zm6.952-8.492v2.42H28.424v-2.42Zm5.28-3.96h-17.2v16.412H35.376V-2.508c0,.792-.308,1.056-1.144,1.056-.836.044-3.828.088-6.38-.088a18.736,18.736,0,0,1,1.76,5.368c4.048,0,6.82-.132,8.624-1.012,1.848-.836,2.42-2.332,2.42-5.236Z" transform="translate(1306 240)" fill="#fff"/>
    </g>
    <g id="グループ_8" data-name="グループ 8" transform="translate(111 468)">
      <rect id="長方形_1-8" data-name="長方形 1" width="385" height="122" rx="8" transform="translate(1113 160)" fill="#5c5c5c"/>
      <path id="パス_1" data-name="パス 1" d="M-33.572-6.336h-7.92V-8.4h7.92Zm-7.92-7.964h7.92v1.892h-7.92Zm-12.232-8.756v-2.112h6.908v2.112Zm19.36-2.112v2.112h-7.128v-2.112Zm10.692,12.76h-4.576V-17.82H-41.492v-1.936H-29v-8.712h-12.5v-1.8h16.808v-4.136H-41.492v-2.86h-5.324v2.86H-63.228v4.136h16.412v1.8H-58.74v8.712h11.924v1.936H-59.84v3.52h13.024v1.892H-64.24v4h17.424v2.068H-60.192v3.784h13.376v1.364c0,.792-.264,1.056-1.1,1.1-.7,0-3.3,0-5.412-.088A16.131,16.131,0,0,1-51.612,3.96c3.74,0,6.116-.088,7.788-.748,1.716-.748,2.332-1.8,2.332-4.4V-2.552h7.92v1.8h5.324V-8.4h4.576ZM9.592-12.76c.176-1.276.308-2.6.44-3.916H4.8a36.731,36.731,0,0,1-.44,3.916H-2.068V-8.4H3.256C1.892-4.972-.66-2.156-5.94-.22A14.8,14.8,0,0,1-2.9,3.828C4.048,1.1,7.172-3.168,8.668-8.4h5.1C13.288-4.312,12.716-2.42,12.1-1.848a1.792,1.792,0,0,1-1.408.484,37.263,37.263,0,0,1-3.784-.22,11.537,11.537,0,0,1,1.408,4.84,33.62,33.62,0,0,0,4.928-.088,4.838,4.838,0,0,0,3.212-1.54c1.276-1.408,2.068-4.8,2.772-12.408.088-.616.176-1.98.176-1.98Zm1.936-15.752a13.37,13.37,0,0,1-2.9,3.74,17.253,17.253,0,0,1-3.652-3.74Zm8.36,0v-4.356H6.908a29.5,29.5,0,0,0,1.628-3.08l-4.884-1.32A26.23,26.23,0,0,1-4.752-26.8,38.422,38.422,0,0,1-.484-23.848,26.2,26.2,0,0,0,1.5-25.74,24.878,24.878,0,0,0,4.62-22.088,26.659,26.659,0,0,1-.748-20.064l.176-1.012L-3.74-22.132l-.7.22H-6.556L-4.4-24.156a24.625,24.625,0,0,0-3.212-1.936,32.843,32.843,0,0,0,6.424-7.26l-3.344-2.112-.792.176H-19.536v4.4h10.56a27.476,27.476,0,0,1-2.772,2.772c-1.188-.528-2.42-1.012-3.476-1.408l-3.3,3.344a63.828,63.828,0,0,1,8.492,4.268H-20.108v4.576h5.5a27.646,27.646,0,0,1-6.248,9.064,29.321,29.321,0,0,1,2.376,5.06,26.658,26.658,0,0,0,5.5-8.14v9.416c0,.528-.176.616-.7.66-.572,0-2.332,0-3.96-.044a17.431,17.431,0,0,1,1.5,4.972c2.728,0,4.708-.088,6.2-.924,1.54-.792,1.892-2.2,1.892-4.576V-17.336H-5.72a57.352,57.352,0,0,1-1.408,6.072l3.52,1.628a51.362,51.362,0,0,0,2.156-7.348A16.653,16.653,0,0,1-.22-15.136a35.219,35.219,0,0,0,8.976-3.7,31.692,31.692,0,0,0,8.976,3.784,20.1,20.1,0,0,1,3.3-4.444,34.237,34.237,0,0,1-8.1-2.6,21.614,21.614,0,0,0,4.4-6.424Zm27.9,23.848H40.172V-8.58h7.612ZM54.3-30.844v3.784H33.44v-3.784Zm-20.988,11c.088-.968.088-1.936.132-2.816H59.532V-35.244H28.248v10.736c0,7-.4,17.028-5.236,23.892a19.185,19.185,0,0,1,4.224,3.3c3.476-4.884,5.06-11.7,5.72-18h24.42c-.308,9.24-.792,12.8-1.54,13.684a1.518,1.518,0,0,1-1.452.616H52.668v-11.7H35.332V2.068h4.84v-2.6H50.556A14.106,14.106,0,0,1,51.612,3.74a29.518,29.518,0,0,0,5.5-.176,4.543,4.543,0,0,0,3.344-1.892c1.32-1.672,1.8-6.644,2.244-19.4.044-.616.088-2.112.088-2.112Z" transform="translate(1306 240)" fill="#fff"/>
    </g>
  </g>
</svg>
